# xmcd
#
# Track frame offsets:
#        150
#        14152
#        28373
#        55355
#
# Disc length: 1200 seconds
#
# Revision: 0
# Processed by: cddbd v1.5.1PL0 Copyright (c) Steve Scherf et al.
# Submitted via: ExactAudioCopy v0.95b2
#
DISCID=3704ae04
DTITLE=Paul McCartney - Fine Line
DYEAR=2005
DGENRE=Rock
TTITLE0=Fine Line
TTITLE1=Comfort Of Love
TTITLE2=Growing Up Falling Down
TTITLE3=FUCK OFF the C.C.C.D.
EXTD=
EXTT0=
EXTT1=
EXTT2=
EXTT3=
PLAYORDER=
